<svg id="Main" xmlns="http://www.w3.org/2000/svg" xmlns:xlink="http://www.w3.org/1999/xlink" viewBox="0 0 72.09942 72.09945"><defs><style>.cls-1{fill:#fff;}.cls-2{fill:#21386e;}</style><symbol id="Mill_White" data-name="Mill White" viewBox="0 0 192.132 136.03"><polygon class="cls-1" points="192.132 73.407 188.21 16.185 190.227 9.863 189.211 0 167.536 0 166.519 9.863 168.537 16.185 164.667 72.458 156.727 48.672 123.78 73.414 123.78 73.414 115.525 48.672 82.578 73.401 74.323 48.672 41.376 73.424 41.376 73.424 33.121 48.672 0 73.429 0 136.03 192.132 136.03 192.132 73.429 192.132 73.407"/></symbol></defs><title>RIMM_Logo</title><rect class="cls-2" width="72.09942" height="72.09945"/><path class="cls-1" d="M61.34406,20.0764c1.14809.92736,2.05543.179,1.18679-1.34184a4.37006,4.37006,0,0,0-6.59253-.61209c-4.32594,3.86579-6.26268,7.45162-13.45955,7.45162-7.11039,0-14.18441-9.37025-1.61626-14.01924.66763-.247.69386-1.54545.19774-2.1231C27.47551-6.38542,14.3082,26.89132,4.22737,29.02564,15.37461,30.32843,24.69942,5.47052,35.48447,9.45657a.73445.73445,0,0,1,.079,1.25507c-9.81692,5.94046-3.85719,17.71045,6.83345,17.66469,8.29149-.03548,10.5017-3.63886,14.556-7.90846A3.2274,3.2274,0,0,1,61.34406,20.0764Z"/><use width="192.13226" height="136.02954" transform="translate(6.04884 23.94254) scale(0.3105)" xlink:href="#Mill_White"/></svg>