<svg xmlns="http://www.w3.org/2000/svg" xmlns:xlink="http://www.w3.org/1999/xlink" viewBox="0 0 768 768"><defs><style>.cls-1,.cls-10,.cls-11,.cls-12,.cls-15,.cls-17,.cls-19,.cls-23,.cls-5,.cls-6,.cls-7,.cls-8,.cls-9{fill:none;}.cls-14,.cls-2{fill:#fff;}.cls-3{fill:#e5e5e5;}.cls-11,.cls-12,.cls-3,.cls-7,.cls-8{stroke:#fff;}.cls-10,.cls-11,.cls-12,.cls-14,.cls-15,.cls-3,.cls-5,.cls-6,.cls-7,.cls-8,.cls-9{stroke-miterlimit:10;}.cls-4{clip-path:url(#clip-path);}.cls-14,.cls-15,.cls-5,.cls-6{stroke:#000;}.cls-19,.cls-5{stroke-width:10px;}.cls-6{stroke-width:28px;}.cls-17,.cls-7{stroke-width:6px;}.cls-8{stroke-width:21px;}.cls-10,.cls-9{stroke:#999;}.cls-9{stroke-width:8px;}.cls-10{stroke-width:14px;}.cls-11{stroke-width:4px;}.cls-12{stroke-width:9px;}.cls-13{fill:#999;}.cls-14,.cls-15{stroke-width:2.70754px;}.cls-16{fill:#3671b2;}.cls-17,.cls-19,.cls-23{stroke:#e5e5e5;}.cls-17{stroke-linecap:round;stroke-linejoin:round;}.cls-18{fill:#727272;}.cls-20{opacity:0.5;}.cls-21{fill:#003271;}.cls-22{fill:#fecf0a;}.cls-23{stroke-width:16px;}</style><clipPath id="clip-path"><rect class="cls-1" x="-1.6664" y="-0.32819" width="770" height="769"/></clipPath><symbol id="Mill_White" data-name="Mill White" viewBox="0 0 192.132 136.03"><polygon class="cls-2" points="192.132 73.407 188.21 16.185 190.227 9.863 189.211 0 167.536 0 166.519 9.863 168.537 16.185 164.667 72.458 156.727 48.672 123.78 73.414 123.78 73.414 115.525 48.672 82.578 73.401 74.323 48.672 41.376 73.424 41.376 73.424 33.121 48.672 0 73.429 0 136.03 192.132 136.03 192.132 73.429 192.132 73.407"/></symbol></defs><title>RIMM-map</title><g id="Map"><rect class="cls-3" x="-1.6664" y="-0.32819" width="770" height="769"/></g><g id="Buildings"><g class="cls-4"><path class="cls-5" d="M407.3336-4.32819s-14,93-5,170,33.48066,107.16476,56,147"/><path class="cls-6" d="M411.3336-31.32819s11,137,13,196,58,129,84,190,38,128,6,221-80,224-80,224"/><path class="cls-5" d="M477.48389,697.20689s53.84971-78.53508,75.84971-134.53508,25-76,17-125-8-67-15-74S533.52,353.17138,533.52,353.17138"/><path class="cls-5" d="M553.3336,562.67181s34-77,69-101,53.1956-18.58055,80.5978,19.20972"/><path class="cls-7" d="M402.3336,165.67181c9,77,33.48066,107.16476,56,147"/><path class="cls-8" d="M411.3336-31.32819s11,137,13,196,58,129,84,190,38,128,6,221-80,224-80,224"/><path class="cls-7" d="M407.3336-4.32819s-14,93-5,170,33.48066,107.16476,56,147"/><line class="cls-9" x1="233.3336" y1="737.67181" x2="240.3336" y2="682.67181"/><polyline class="cls-9" points="-25.666 263.672 92.064 263.672 136.334 267.672"/><line class="cls-9" x1="-17.6664" y1="186.67181" x2="93.03279" y2="192.55165"/><line class="cls-9" x1="22.02779" y1="263.67181" x2="-12.6664" y2="497.67181"/><path class="cls-9" d="M246.3336,445.67181s34-3,48,0,28,4,45,6,64,2,64,2l87.83352,6.68488"/><path class="cls-9" d="M316.3336,690.67181l142-379s13-48,9-101-15-215-15-215"/><line class="cls-9" x1="503.3336" y1="-20.32819" x2="468.68753" y2="63.54301"/><line class="cls-9" x1="518.3336" y1="-5.32819" x2="647.3336" y2="44.67181"/><polyline class="cls-9" points="745.334 -17.328 732.578 147.597 715.334 308.672"/><polyline class="cls-9" points="778.334 358.672 715.334 307.672 571.312 257.063"/><polyline class="cls-9" points="595.746 193.534 659.334 214.672 724.759 217.968"/><path class="cls-9" d="M542.3336,319.67181l9,19,160,60s19,9,27,19S755.058,436.89972,755.058,436.89972"/><path class="cls-9" d="M465.75541,179.85047s23.57819-3.17866,31.57819-2.17866,88.63876,35.40936,88.63876,35.40936"/><line class="cls-9" x1="466.73278" y1="240.44763" x2="503.3336" y2="237.67181"/><line class="cls-9" x1="543.3336" y1="230.67181" x2="575.22125" y2="244.35712"/><path class="cls-9" d="M458.3336,311.67181s8,16,26,55,18.562,58.49943,18.562,58.49943"/><line class="cls-9" x1="375.83704" y1="532.68233" x2="452.07218" y2="562.00354"/><polyline class="cls-9" points="686.642 502.384 745.334 562.672 787.334 679.672"/><line class="cls-9" x1="541.99055" y1="647.03504" x2="615.3336" y2="751.67181"/><polyline class="cls-9" points="774.334 718.672 756.334 727.672 601.334 753.672 539.334 770.672"/><path class="cls-9" d="M546.3336,789.67181s-21-33-31-47a33.03554,33.03554,0,0,0-25-14"/><line class="cls-9" x1="274.3336" y1="549.67181" x2="298.95031" y2="447.65083"/><polyline class="cls-9" points="370.334 -13.328 392.334 297.672 339.334 451.672"/><line class="cls-9" x1="306.3336" y1="191.67181" x2="385.3336" y2="188.67181"/><path class="cls-9" d="M290.3336-20.32819s26,331,25,351-21,115-21,115"/><path class="cls-10" d="M-12.6664,670.67181h99l154,12s55,8,76,8,49,3,62,5,106,30,112,33"/><path class="cls-10" d="M473.3336,778.67181l28-69s12.24507-31.78883,26-48c28-33,254-248,254-248"/><line class="cls-10" x1="368.3336" y1="778.67181" x2="673.3336" y2="-9.32819"/><path class="cls-10" d="M311.3336-14.32819s125,61,148,71,188,80,214,84,108,10,108,10"/><polyline class="cls-10" points="90.334 -14.328 95.334 23.672 90.334 390.672 86.334 670.672 73.334 778.672"/><line class="cls-11" x1="233.3336" y1="737.67181" x2="240.3336" y2="682.67181"/><polyline class="cls-11" points="-25.666 263.672 92.064 263.672 136.334 267.672"/><line class="cls-11" x1="-17.6664" y1="186.67181" x2="93.03279" y2="192.55165"/><line class="cls-11" x1="22.02779" y1="263.67181" x2="-12.6664" y2="497.67181"/><path class="cls-11" d="M246.3336,445.67181s34-3,48,0,28,4,45,6,64,2,64,2l87.83352,6.68488"/><path class="cls-11" d="M316.3336,690.67181l142-379s13-48,9-101-15-215-15-215"/><line class="cls-11" x1="503.3336" y1="-20.32819" x2="468.68753" y2="63.54301"/><line class="cls-11" x1="518.3336" y1="-5.32819" x2="647.3336" y2="44.67181"/><polyline class="cls-11" points="745.334 -17.328 732.578 147.597 715.334 308.672"/><polyline class="cls-11" points="778.334 358.672 715.334 307.672 571.312 257.063"/><polyline class="cls-11" points="595.746 193.534 659.334 214.672 724.759 217.968"/><path class="cls-11" d="M542.3336,319.67181l9,19,160,60s19,9,27,19S755.058,436.89972,755.058,436.89972"/><path class="cls-11" d="M465.75541,179.85047s23.57819-3.17866,31.57819-2.17866,88.63876,35.40936,88.63876,35.40936"/><line class="cls-11" x1="466.73278" y1="240.44763" x2="503.3336" y2="237.67181"/><line class="cls-11" x1="543.3336" y1="230.67181" x2="575.22125" y2="244.35712"/><path class="cls-11" d="M458.3336,311.67181s8,16,26,55,18.562,58.49943,18.562,58.49943"/><line class="cls-11" x1="375.83704" y1="532.68233" x2="452.07218" y2="562.00354"/><polyline class="cls-11" points="686.642 502.384 745.334 562.672 787.334 679.672"/><line class="cls-11" x1="541.99055" y1="647.03504" x2="615.3336" y2="751.67181"/><polyline class="cls-11" points="774.334 718.672 756.334 727.672 601.334 753.672 539.334 770.672"/><path class="cls-11" d="M546.3336,789.67181s-21-33-31-47a33.03554,33.03554,0,0,0-25-14"/><line class="cls-11" x1="274.3336" y1="549.67181" x2="298.95031" y2="447.65083"/><polyline class="cls-11" points="370.334 -13.328 392.334 297.672 339.334 451.672"/><line class="cls-11" x1="306.3336" y1="191.67181" x2="385.3336" y2="188.67181"/><path class="cls-11" d="M290.3336-20.32819s26,331,25,351-21,115-21,115"/><path class="cls-12" d="M-12.6664,670.67181h99l154,12s55,8,76,8,49,3,62,5,106,30,112,33"/><path class="cls-12" d="M473.3336,778.67181l28-69s12.24507-31.78883,26-48c28-33,254-248,254-248"/><line class="cls-12" x1="368.3336" y1="778.67181" x2="673.3336" y2="-9.32819"/><path class="cls-12" d="M311.3336-14.32819s125,61,148,71,188,80,214,84,108,10,108,10"/><polyline class="cls-12" points="90.334 -14.328 95.334 23.672 90.334 390.672 86.334 670.672 73.334 778.672"/><path class="cls-7" d="M477.48389,697.20689s53.84971-78.53508,75.84971-134.53508,25-76,17-125-8-67-15-74S533.52,353.17138,533.52,353.17138"/><path class="cls-7" d="M553.3336,562.67181s34-77,69-101,53.1956-18.58055,80.5978,19.20972"/><path class="cls-7" d="M402.3336,165.67181c9,77,33.48066,107.16476,56,147"/><polygon points="385.334 344.672 429.334 359.672 399.334 446.672 369.334 436.672 391.334 370.672 378.334 366.672 385.334 344.672"/><polygon class="cls-13" points="308.334 680.672 331.334 621.672 287.334 604.672 279.334 631.672 294.334 638.672 278.334 678.672 308.334 680.672"/><path class="cls-14" d="M530.3336,528.2904c31.13668-9.92764,44.67437-35.64924,24.36784-67.23718a35.26345,35.26345,0,0,1-24.36784,0,35.26343,35.26343,0,0,1-24.36783,0C485.65924,492.64116,499.19692,518.36276,530.3336,528.2904Z"/><line class="cls-15" x1="498.73415" y1="475.78545" x2="561.93312" y2="475.78545"/><path d="M528.83849,496.13665c0,9.68555-5.80372,15.08887-14.28907,15.08887a14.97972,14.97972,0,0,1-7.76465-1.9209l2.40137-4.76367a9.0602,9.0602,0,0,0,5.24317,1.40137c4.64257,0,7.68457-2.76172,7.88476-8.165a9.57461,9.57461,0,0,1-6.96387,2.52148c-5.40332,0-9.6455-3.44238-9.6455-8.72558,0-5.72266,4.68261-9.3252,10.60644-9.3252C524.07579,482.248,528.83849,487.09075,528.83849,496.13665Zm-7.24512-4.88281c0-2.40137-1.80078-4.16309-4.88281-4.16309-2.76172,0-4.68262,1.60157-4.68262,4.16309s1.88086,4.20215,4.76269,4.20215C519.63243,495.456,521.59337,493.69525,521.59337,491.25384Z"/><path d="M554.73009,501.93939c0,4.96289-3.6416,9.28613-11.64649,9.28613a19.361,19.361,0,0,1-10.68652-3.002l2.56152-4.96289a13.48554,13.48554,0,0,0,7.96485,2.52148c3.24121,0,5.24316-1.36133,5.24316-3.64258,0-2.20117-1.44141-3.6416-6.52441-3.6416h-7.16407l1.44043-15.76953h17.09082v5.20312h-11.6875l-.43945,5.32325h2.28125C551.44786,493.25482,554.73009,496.9765,554.73009,501.93939Z"/><path class="cls-16" d="M217.46672-5.32819c1.78925,6.5484,5.14178,19.84845,5.86688,30,1,14-6,29-7,38s-1,26-1,46,3,26-2,34-3,10,4,12,8,3-1,13-3,16,4,22,5,9,5,9-9-4-5,2,7,27,7,33-10,7-10,14,7,3,7,10,3,1,3,6-6,16-6,16a112.25934,112.25934,0,0,0-5.16442,27.82631c-.45931,7.40669,2.90514,15.74445,2.02834,24.30492-.907,8.85529-6.07211,17.9489-7.56731,26.4967-1.65949,9.487.27442,18.30173-2.29661,25.37207-12,33-32,64-32,64l-10,1s-26,85-32,145,12,174,12,174h38s9-4,9-19,2-47-3-114,2-128,23-171,37-153,43-193c5.35108-35.67395-5.20544-233.60352-7.55151-276Z"/></g></g><g id="Text"><path class="cls-17" d="M538.12657,281.25775c3.10742,1.20166,3.99414,4.18652,2.22656,8.75683l-3.25195,8.40821-18.28125-7.07032,3.05078-7.88574c1.57617-4.07324,4.209-5.7583,7.18555-4.60693a4.55194,4.55194,0,0,1,3.07226,4.40088A4.677,4.677,0,0,1,538.12657,281.25775Zm-16.9668,8.77929,6.63477,2.56543,2.25195-5.82324c1.13086-2.9248.66407-5.05762-1.52929-5.90625-2.19336-.84814-3.97266.416-5.10352,3.34082Zm16.0625-6.90722c-2.37695-.91993-4.09765.42675-5.33984,3.63867l-2.49609,6.45019,6.86914,2.65625,2.49414-6.45019C539.99181,286.21282,539.62462,284.05853,537.22227,283.12982Z"/><path class="cls-17" d="M533.80431,265.8056l1.80273.69726c-.06055.15625-.14844.30274-.19727.4336-1.11132,2.873.03907,5.3291,3.27735,6.582l6.998,2.707-.7168,1.85352-13.73633-5.313.6875-1.77442,2.68945,1.04053C533.11485,270.46282,532.82384,268.33978,533.80431,265.8056Z"/><path class="cls-17" d="M541.88829,265.63079a7.48979,7.48979,0,1,1,9.70508-4.2915A7.24483,7.24483,0,0,1,541.88829,265.63079ZM546.56407,253.54a5.48022,5.48022,0,1,0,3.38477,7.16309A5.37,5.37,0,0,0,546.56407,253.54Z"/><path class="cls-17" d="M551.49571,235.90228l8.51172,3.293-.68555,1.77539-2.14257-.82813c1.08789,1.38086,1.32421,3.3335.44531,5.605-1.20313,3.10742-3.5586,4.38721-5.93555,3.46826-2.11523-.81836-3.36523-2.8623-1.83984-6.80566l1.68554-4.36133-.83593-.32324c-2.34961-.90918-4.14453-.07227-5.13477,2.4873a7.50532,7.50532,0,0,0-.14844,5.1958l-1.707.30079a9.35934,9.35934,0,0,1,.30664-6.30518C545.39024,235.8515,547.943,234.52825,551.49571,235.90228Zm3.66992,3.55078-2.24609-.86914-1.666,4.30859c-1.03125,2.66406-.32031,3.93067,1.08985,4.47559,1.59375.61621,3.08008-.28028,3.92969-2.47364A4.71259,4.71259,0,0,0,555.16563,239.45306Z"/><path class="cls-17" d="M547.85313,213.02874l19.377,7.49463-.6875,1.77637-2.7168-1.05078a6.37433,6.37433,0,0,1,.79688,6.40185A7.4913,7.4913,0,0,1,550.652,222.247a6.42913,6.42913,0,0,1,4.73633-4.17187l-8.25195-3.1919Zm11.80079,6.66651a5.4802,5.4802,0,1,0,3.38476,7.16211A5.3854,5.3854,0,0,0,559.65392,219.69525Z"/><path class="cls-17" d="M563.69493,188.83538l11.72656,10.51026-.67773,1.749-12.93164-.01855,9.57812,8.68847-.67578,1.75-15.73633-.14209.6875-1.77637,13.33985.20655-9.9668-8.92822.61524-1.59375,13.37109.12841-9.98633-8.87744Z"/><path class="cls-17" d="M574.25157,177.06634l8.51172,3.293-.68555,1.77539-2.14257-.82813c1.08789,1.38086,1.32421,3.3335.44531,5.605-1.20313,3.1084-3.5586,4.38819-5.93555,3.46924-2.11523-.81836-3.36523-2.86328-1.83984-6.80566l1.68554-4.36231-.83593-.32324c-2.34961-.90918-4.14453-.07226-5.13477,2.48731a7.50532,7.50532,0,0,0-.14844,5.1958l-1.707.30176a9.36215,9.36215,0,0,1,.30664-6.30616C568.1461,177.01556,570.69884,175.69232,574.25157,177.06634Zm3.66992,3.55078-2.24609-.86914-1.666,4.30859c-1.03125,2.66407-.32031,3.93067,1.08985,4.47559,1.59375.61621,3.08008-.28027,3.92969-2.47266A4.71376,4.71376,0,0,0,577.92149,180.61712Z"/><path class="cls-17" d="M575.74376,157.68011l12.72656,12.81641c2.24414,2.18994,2.541,3.98486,1.7832,5.94384a5.03245,5.03245,0,0,1-2.54687,2.85791l-1.04883-1.39648a3.683,3.683,0,0,0,2.01367-2.104c.47461-1.22657.22266-2.28467-1.19726-3.73438l-1.09961-1.1167-16.084.834.74805-1.93165,13.67188-.65576-9.67383-9.68506Z"/><path d="M538.12657,281.25775c3.10742,1.20166,3.99414,4.18652,2.22656,8.75683l-3.25195,8.40821-18.28125-7.07032,3.05078-7.88574c1.57617-4.07324,4.209-5.7583,7.18555-4.60693a4.55194,4.55194,0,0,1,3.07226,4.40088A4.677,4.677,0,0,1,538.12657,281.25775Zm-16.9668,8.77929,6.63477,2.56543,2.25195-5.82324c1.13086-2.9248.66407-5.05762-1.52929-5.90625-2.19336-.84814-3.97266.416-5.10352,3.34082Zm16.0625-6.90722c-2.37695-.91993-4.09765.42675-5.33984,3.63867l-2.49609,6.45019,6.86914,2.65625,2.49414-6.45019C539.99181,286.21282,539.62462,284.05853,537.22227,283.12982Z"/><path d="M533.80431,265.8056l1.80273.69726c-.06055.15625-.14844.30274-.19727.4336-1.11132,2.873.03907,5.3291,3.27735,6.582l6.998,2.707-.7168,1.85352-13.73633-5.313.6875-1.77442,2.68945,1.04053C533.11485,270.46282,532.82384,268.33978,533.80431,265.8056Z"/><path d="M541.88829,265.63079a7.48979,7.48979,0,1,1,9.70508-4.2915A7.24483,7.24483,0,0,1,541.88829,265.63079ZM546.56407,253.54a5.48022,5.48022,0,1,0,3.38477,7.16309A5.37,5.37,0,0,0,546.56407,253.54Z"/><path d="M551.49571,235.90228l8.51172,3.293-.68555,1.77539-2.14257-.82813c1.08789,1.38086,1.32421,3.3335.44531,5.605-1.20313,3.10742-3.5586,4.38721-5.93555,3.46826-2.11523-.81836-3.36523-2.8623-1.83984-6.80566l1.68554-4.36133-.83593-.32324c-2.34961-.90918-4.14453-.07227-5.13477,2.4873a7.50532,7.50532,0,0,0-.14844,5.1958l-1.707.30079a9.35934,9.35934,0,0,1,.30664-6.30518C545.39024,235.8515,547.943,234.52825,551.49571,235.90228Zm3.66992,3.55078-2.24609-.86914-1.666,4.30859c-1.03125,2.66406-.32031,3.93067,1.08985,4.47559,1.59375.61621,3.08008-.28028,3.92969-2.47364A4.71259,4.71259,0,0,0,555.16563,239.45306Z"/><path d="M547.85313,213.02874l19.377,7.49463-.6875,1.77637-2.7168-1.05078a6.37433,6.37433,0,0,1,.79688,6.40185A7.4913,7.4913,0,0,1,550.652,222.247a6.42913,6.42913,0,0,1,4.73633-4.17187l-8.25195-3.1919Zm11.80079,6.66651a5.4802,5.4802,0,1,0,3.38476,7.16211A5.3854,5.3854,0,0,0,559.65392,219.69525Z"/><path d="M563.69493,188.83538l11.72656,10.51026-.67773,1.749-12.93164-.01855,9.57812,8.68847-.67578,1.75-15.73633-.14209.6875-1.77637,13.33985.20655-9.9668-8.92822.61524-1.59375,13.37109.12841-9.98633-8.87744Z"/><path d="M574.25157,177.06634l8.51172,3.293-.68555,1.77539-2.14257-.82813c1.08789,1.38086,1.32421,3.3335.44531,5.605-1.20313,3.1084-3.5586,4.38819-5.93555,3.46924-2.11523-.81836-3.36523-2.86328-1.83984-6.80566l1.68554-4.36231-.83593-.32324c-2.34961-.90918-4.14453-.07226-5.13477,2.48731a7.50532,7.50532,0,0,0-.14844,5.1958l-1.707.30176a9.36215,9.36215,0,0,1,.30664-6.30616C568.1461,177.01556,570.69884,175.69232,574.25157,177.06634Zm3.66992,3.55078-2.24609-.86914-1.666,4.30859c-1.03125,2.66407-.32031,3.93067,1.08985,4.47559,1.59375.61621,3.08008-.28027,3.92969-2.47266A4.71376,4.71376,0,0,0,577.92149,180.61712Z"/><path d="M575.74376,157.68011l12.72656,12.81641c2.24414,2.18994,2.541,3.98486,1.7832,5.94384a5.03245,5.03245,0,0,1-2.54687,2.85791l-1.04883-1.39648a3.683,3.683,0,0,0,2.01367-2.104c.47461-1.22657.22266-2.28467-1.19726-3.73438l-1.09961-1.1167-16.084.834.74805-1.93165,13.67188-.65576-9.67383-9.68506Z"/><path class="cls-17" d="M342.69493,652.25677l7.18164,2.77832,3.65625-9.45508,1.67188.64649-3.65625,9.45507,7.75586,2.999-.748,1.93164-18.2793-7.07031,4.84766-12.53418,1.66992.64648Z"/><path class="cls-17" d="M357.61681,642.62689a7.48979,7.48979,0,1,1,9.707-4.291A7.24422,7.24422,0,0,1,357.61681,642.62689Zm4.67773-12.09082a5.48051,5.48051,0,1,0,3.38281,7.16308A5.37246,5.37246,0,0,0,362.29454,630.53607Z"/><path class="cls-17" d="M362.80821,608.789l13.73633,5.31347-.68555,1.77539-2.50781-.96972a5.85788,5.85788,0,0,1,.72852,5.95605c-1.35352,3.499-4.20118,5.04-8.14453,3.51465l-7.96485-3.08008.71875-1.85547,7.78125,3.01075c2.92578,1.13085,5,.19238,6.00977-2.41895,1.11133-2.873-.04688-5.3916-3.17969-6.60352l-7.209-2.78711Z"/><path class="cls-17" d="M375.88243,592.14056l7.96484,3.08105-.71679,1.8545-7.78125-3.00977c-2.90039-1.12109-4.97461-.18262-5.98438,2.42871-1.14062,2.95117-.02929,5.5127,3.10352,6.72461l7.207,2.78809-.7168,1.85351-13.73633-5.3125.6875-1.77539,2.53321.97949a6.19,6.19,0,0,1-.61719-6.24414C369.11876,592.16693,371.93907,590.61517,375.88243,592.14056Z"/><path class="cls-17" d="M388.16368,581.58a4.74241,4.74241,0,0,1-.1543,3.27344c-1,2.584-3.01953,3.4541-5.55273,2.47461l-8.30273-3.21192-.95118,2.45606-1.5664-.60547.94922-2.457-3.002-1.16113.7168-1.85352,3.00195,1.16113,1.61719-4.17773,1.56641.60547-1.61524,4.17871,8.19922,3.17187a2.35835,2.35835,0,0,0,3.42578-1.40722,3.28106,3.28106,0,0,0,.082-2.30957Z"/><path class="cls-17" d="M386.20274,563.83l8.51172,3.293-.68554,1.77539-2.14258-.82812c1.08789,1.38086,1.32422,3.334.44531,5.60546-1.20313,3.10743-3.55859,4.3877-5.93555,3.46875-2.11523-.81835-3.36523-2.8623-1.83984-6.80566l1.68555-4.3623-.83594-.32325c-2.34961-.90918-4.14453-.07129-5.13477,2.48829a7.50658,7.50658,0,0,0-.14843,5.19628l-1.707.30079a9.36365,9.36365,0,0,1,.30664-6.30665C380.09727,563.78021,382.65,562.456,386.20274,563.83Zm3.66993,3.55078-2.2461-.86914-1.666,4.30957c-1.03125,2.66407-.32032,3.92969,1.08984,4.47461,1.59375.61621,3.08008-.27929,3.92969-2.47265A4.71377,4.71377,0,0,0,389.87267,567.38079Z"/><path class="cls-17" d="M378.83556,554.46673a1.43478,1.43478,0,0,1-.7793-1.86328,1.41268,1.41268,0,0,1,1.80469-.86328,1.45657,1.45657,0,0,1-1.02539,2.72656Zm4.49609,1.25781.71875-1.85351,13.73633,5.31347L397.068,561.038Z"/><path class="cls-17" d="M397.1129,537.248l7.96484,3.08106-.71679,1.85449-7.78125-3.00977c-2.90039-1.12109-4.97461-.18262-5.98438,2.42871-1.14062,2.95117-.0293,5.5127,3.10352,6.72461l7.209,2.78809-.7168,1.85351-13.73632-5.3125.68554-1.77539,2.53321.9795a6.19056,6.19056,0,0,1-.61719-6.24415C390.34923,537.27337,393.16954,535.72259,397.1129,537.248Z"/><path class="cls-17" d="M407.7379,526.85833l-1.19727-1.334a9.62018,9.62018,0,0,0,4.55274-5.17383c1.32422-3.4209.46289-5.46582-1.33789-6.16211-5.01367-1.93945-6.28711,10.50781-13.05078,7.8916-2.68946-1.04-4.20508-4.02734-2.40821-8.67578a11.0769,11.0769,0,0,1,3.8125-5.041l1.28711,1.249A10.0885,10.0885,0,0,0,395.943,514.04c-1.293,3.34278-.38086,5.40723,1.44726,6.11426,5.01368,1.93945,6.33789-10.48828,12.998-7.91309,2.68945,1.041,4.16016,4.07129,2.35156,8.7461C411.67931,523.72943,409.67345,526.04486,407.7379,526.85833Z"/><path class="cls-17" d="M419.06017,501.69622a4.73952,4.73952,0,0,1-.1543,3.27246c-1,2.58594-3.01953,3.45606-5.55274,2.47657l-8.30273-3.21192-.95117,2.45508-1.56641-.60645.94922-2.45507-3.00195-1.16114.71679-1.85351,3.002,1.16113,1.61718-4.17969,1.56641.60645-1.61523,4.17969,8.19922,3.17187a2.35944,2.35944,0,0,0,3.42578-1.40723,3.28358,3.28358,0,0,0,.082-2.31054Z"/><path class="cls-17" d="M410.43907,485.332l1.80078.69727c-.06054.15625-.14648.30273-.19726.43359-1.11133,2.873.03906,5.32911,3.27929,6.582l6.998,2.707-.7168,1.85351-13.73632-5.3125.68554-1.77539,2.69141,1.041C409.74767,489.98919,409.4586,487.86614,410.43907,485.332Z"/><path class="cls-17" d="M424.25743,472.03509l-4.44336,11.48926a5.44936,5.44936,0,0,0,6.86914-3.55664,5.80637,5.80637,0,0,0-.17578-4.90137l1.60547-.58008a7.25623,7.25623,0,0,1,.19531,6.16992c-1.65625,4.28321-5.71289,6.07618-9.78711,4.501a7.09578,7.09578,0,0,1-4.37695-9.40918c1.49609-3.86426,5.42187-5.55713,9.54883-3.96094C423.84923,471.84759,424.04845,471.954,424.25743,472.03509Zm-5.82812,10.9541,3.76757-9.74023a5.2323,5.2323,0,0,0-3.76757,9.74023Z"/><path class="cls-17" d="M430.76134,455.21673,426.318,466.707a5.44991,5.44991,0,0,0,6.86914-3.55761,5.79964,5.79964,0,0,0-.17578-4.90137l1.60547-.58008a7.24342,7.24342,0,0,1,.19531,6.17041c-1.65625,4.28321-5.71094,6.07569-9.78516,4.50049a7.09222,7.09222,0,0,1-4.37695-9.4082c1.49414-3.86524,5.42187-5.55811,9.54687-3.96192C430.35509,455.02923,430.55235,455.13568,430.76134,455.21673Zm-5.82813,10.95508,3.76758-9.74024a5.23243,5.23243,0,0,0-3.76758,9.74024Z"/><path class="cls-17" d="M440.8961,445.23724a4.72688,4.72688,0,0,1-.15429,3.272c-1,2.585-3.01758,3.45557-5.55079,2.47608l-8.30468-3.21192-.94922,2.45606-1.56836-.606.95117-2.45606-3.00391-1.16162.7168-1.85351,3.00391,1.16162,1.61523-4.17871,1.56641.60595-1.61524,4.17872,8.19922,3.17187a2.36059,2.36059,0,0,0,3.42774-1.40674,3.29559,3.29559,0,0,0,.082-2.311Z"/><path d="M342.69493,652.25677l7.18164,2.77832,3.65625-9.45508,1.67188.64649-3.65625,9.45507,7.75586,2.999-.748,1.93164-18.2793-7.07031,4.84766-12.53418,1.66992.64648Z"/><path d="M357.61681,642.62689a7.48979,7.48979,0,1,1,9.707-4.291A7.24422,7.24422,0,0,1,357.61681,642.62689Zm4.67773-12.09082a5.48051,5.48051,0,1,0,3.38281,7.16308A5.37246,5.37246,0,0,0,362.29454,630.53607Z"/><path d="M362.80821,608.789l13.73633,5.31347-.68555,1.77539-2.50781-.96972a5.85788,5.85788,0,0,1,.72852,5.95605c-1.35352,3.499-4.20118,5.04-8.14453,3.51465l-7.96485-3.08008.71875-1.85547,7.78125,3.01075c2.92578,1.13085,5,.19238,6.00977-2.41895,1.11133-2.873-.04688-5.3916-3.17969-6.60352l-7.209-2.78711Z"/><path d="M375.88243,592.14056l7.96484,3.08105-.71679,1.8545-7.78125-3.00977c-2.90039-1.12109-4.97461-.18262-5.98438,2.42871-1.14062,2.95117-.02929,5.5127,3.10352,6.72461l7.207,2.78809-.7168,1.85351-13.73633-5.3125.6875-1.77539,2.53321.97949a6.19,6.19,0,0,1-.61719-6.24414C369.11876,592.16693,371.93907,590.61517,375.88243,592.14056Z"/><path d="M388.16368,581.58a4.74241,4.74241,0,0,1-.1543,3.27344c-1,2.584-3.01953,3.4541-5.55273,2.47461l-8.30273-3.21192-.95118,2.45606-1.5664-.60547.94922-2.457-3.002-1.16113.7168-1.85352,3.00195,1.16113,1.61719-4.17773,1.56641.60547-1.61524,4.17871,8.19922,3.17187a2.35835,2.35835,0,0,0,3.42578-1.40722,3.28106,3.28106,0,0,0,.082-2.30957Z"/><path d="M386.20274,563.83l8.51172,3.293-.68554,1.77539-2.14258-.82812c1.08789,1.38086,1.32422,3.334.44531,5.60546-1.20313,3.10743-3.55859,4.3877-5.93555,3.46875-2.11523-.81835-3.36523-2.8623-1.83984-6.80566l1.68555-4.3623-.83594-.32325c-2.34961-.90918-4.14453-.07129-5.13477,2.48829a7.50658,7.50658,0,0,0-.14843,5.19628l-1.707.30079a9.36365,9.36365,0,0,1,.30664-6.30665C380.09727,563.78021,382.65,562.456,386.20274,563.83Zm3.66993,3.55078-2.2461-.86914-1.666,4.30957c-1.03125,2.66407-.32032,3.92969,1.08984,4.47461,1.59375.61621,3.08008-.27929,3.92969-2.47265A4.71377,4.71377,0,0,0,389.87267,567.38079Z"/><path d="M378.83556,554.46673a1.43478,1.43478,0,0,1-.7793-1.86328,1.41268,1.41268,0,0,1,1.80469-.86328,1.45657,1.45657,0,0,1-1.02539,2.72656Zm4.49609,1.25781.71875-1.85351,13.73633,5.31347L397.068,561.038Z"/><path d="M397.1129,537.248l7.96484,3.08106-.71679,1.85449-7.78125-3.00977c-2.90039-1.12109-4.97461-.18262-5.98438,2.42871-1.14062,2.95117-.0293,5.5127,3.10352,6.72461l7.209,2.78809-.7168,1.85351-13.73632-5.3125.68554-1.77539,2.53321.9795a6.19056,6.19056,0,0,1-.61719-6.24415C390.34923,537.27337,393.16954,535.72259,397.1129,537.248Z"/><path d="M407.7379,526.85833l-1.19727-1.334a9.62018,9.62018,0,0,0,4.55274-5.17383c1.32422-3.4209.46289-5.46582-1.33789-6.16211-5.01367-1.93945-6.28711,10.50781-13.05078,7.8916-2.68946-1.04-4.20508-4.02734-2.40821-8.67578a11.0769,11.0769,0,0,1,3.8125-5.041l1.28711,1.249A10.0885,10.0885,0,0,0,395.943,514.04c-1.293,3.34278-.38086,5.40723,1.44726,6.11426,5.01368,1.93945,6.33789-10.48828,12.998-7.91309,2.68945,1.041,4.16016,4.07129,2.35156,8.7461C411.67931,523.72943,409.67345,526.04486,407.7379,526.85833Z"/><path d="M419.06017,501.69622a4.73952,4.73952,0,0,1-.1543,3.27246c-1,2.58594-3.01953,3.45606-5.55274,2.47657l-8.30273-3.21192-.95117,2.45508-1.56641-.60645.94922-2.45507-3.00195-1.16114.71679-1.85351,3.002,1.16113,1.61718-4.17969,1.56641.60645-1.61523,4.17969,8.19922,3.17187a2.35944,2.35944,0,0,0,3.42578-1.40723,3.28358,3.28358,0,0,0,.082-2.31054Z"/><path d="M410.43907,485.332l1.80078.69727c-.06054.15625-.14648.30273-.19726.43359-1.11133,2.873.03906,5.32911,3.27929,6.582l6.998,2.707-.7168,1.85351-13.73632-5.3125.68554-1.77539,2.69141,1.041C409.74767,489.98919,409.4586,487.86614,410.43907,485.332Z"/><path d="M424.25743,472.03509l-4.44336,11.48926a5.44936,5.44936,0,0,0,6.86914-3.55664,5.80637,5.80637,0,0,0-.17578-4.90137l1.60547-.58008a7.25623,7.25623,0,0,1,.19531,6.16992c-1.65625,4.28321-5.71289,6.07618-9.78711,4.501a7.09578,7.09578,0,0,1-4.37695-9.40918c1.49609-3.86426,5.42187-5.55713,9.54883-3.96094C423.84923,471.84759,424.04845,471.954,424.25743,472.03509Zm-5.82812,10.9541,3.76757-9.74023a5.2323,5.2323,0,0,0-3.76757,9.74023Z"/><path d="M430.76134,455.21673,426.318,466.707a5.44991,5.44991,0,0,0,6.86914-3.55761,5.79964,5.79964,0,0,0-.17578-4.90137l1.60547-.58008a7.24342,7.24342,0,0,1,.19531,6.17041c-1.65625,4.28321-5.71094,6.07569-9.78516,4.50049a7.09222,7.09222,0,0,1-4.37695-9.4082c1.49414-3.86524,5.42187-5.55811,9.54687-3.96192C430.35509,455.02923,430.55235,455.13568,430.76134,455.21673Zm-5.82813,10.95508,3.76758-9.74024a5.23243,5.23243,0,0,0-3.76758,9.74024Z"/><path d="M440.8961,445.23724a4.72688,4.72688,0,0,1-.15429,3.272c-1,2.585-3.01758,3.45557-5.55079,2.47608l-8.30468-3.21192-.94922,2.45606-1.56836-.606.95117-2.45606-3.00391-1.16162.7168-1.85351,3.00391,1.16162,1.61523-4.17871,1.56641.60595-1.61524,4.17872,8.19922,3.17187a2.36059,2.36059,0,0,0,3.42774-1.40674,3.29559,3.29559,0,0,0,.082-2.311Z"/><path class="cls-17" d="M239.95665,471.20208c-.18457,3.32715-2.751,5.09082-7.64356,4.81934l-9.00195-.501L224.4,455.95111l8.44238.46875c4.36133.24316,6.77539,2.22851,6.59766,5.415a4.54986,4.54986,0,0,1-3.23926,4.2793A4.68027,4.68027,0,0,1,239.95665,471.20208Zm-2.05957-.28222c.1416-2.54493-1.66992-3.76661-5.1084-3.958l-6.90527-.38477-.40918,7.35254,6.90527.38477C235.818,474.50579,237.75352,473.49114,237.89708,470.91986Zm-11.52344-13.14942-.39551,7.10156,6.23438.34668c3.13086.17481,5.01562-.92675,5.14648-3.27539.12989-2.34863-1.62011-3.65136-4.751-3.82617Z"/><path class="cls-17" d="M246.24376,455.98821l1.98437.11036-1.15429,20.74414-1.98438-.11035Z"/><path class="cls-17" d="M265.33263,468.71575l-.50684,9.11426-1.90039-.10644.12793-2.292c-.97852,1.459-2.76465,2.28614-5.19629,2.15039-3.32715-.18457-5.27051-2.03125-5.12891-4.57617.126-2.26367,1.68457-4.084,5.90625-3.84961l4.66895.25977.0498-.89453c.14063-2.51563-1.209-3.96582-3.94921-4.11817a7.5,7.5,0,0,0-4.98829,1.46192l-.81347-1.53223a9.359,9.359,0,0,1,6.09375-1.65137C263.49864,462.89349,265.54454,464.914,265.33263,468.71575Zm-2.24512,4.58692.13379-2.40528-4.61231-.25683c-2.85254-.1582-3.83691.90918-3.9209,2.418-.09472,1.70605,1.21583,2.84375,3.56446,2.97461A4.71076,4.71076,0,0,0,263.08751,473.30267Z"/><path class="cls-17" d="M270.32384,470.76068a7.24886,7.24886,0,0,1,7.99121-7.043,6.43078,6.43078,0,0,1,5.59765,3.22754l-1.53808.92382a5.00348,5.00348,0,0,0-4.15528-2.41894,5.74283,5.74283,0,0,0-.63769,11.46289,4.98013,4.98013,0,0,0,4.39648-1.915l1.42579,1.08887a6.49288,6.49288,0,0,1-5.9209,2.58691A7.27121,7.27121,0,0,1,270.32384,470.76068Z"/><path class="cls-17" d="M293.89317,472.0429l-3.6455,2.99414-.2334,4.19336-1.98438-.11035,1.1543-20.74414,1.98437.11035-.78222,14.0625,9.22461-7.53515,2.46093.13671-6.625,5.66114,6.39356,9.07715-2.43262-.13477Z"/><path class="cls-17" d="M303.55528,478.30071l.98242-1.51562a8.8921,8.8921,0,0,0,5.13575,1.94043c2.79589.15527,3.99414-.73047,4.07519-2.18457.21289-3.83008-9.48828-1.34082-9.165-7.15625.13379-2.4043,2.30274-4.07813,6.04883-3.87012a9.98662,9.98662,0,0,1,5.124,1.65918l-.956,1.54492a7.54951,7.54951,0,0,0-4.2627-1.499c-2.65625-.14746-3.88769.82227-3.96484,2.21973-.22168,3.96972,9.47852,1.50879,9.16406,7.15625-.1416,2.543-2.46972,4.06836-6.2998,3.85547A9.83348,9.83348,0,0,1,303.55528,478.30071Z"/><path class="cls-17" d="M328.08653,480.45111a4.73225,4.73225,0,0,1-3.16113.86132c-2.76758-.15332-4.2168-1.80468-4.06641-4.5166l.49414-8.88965-2.6289-.14648.09375-1.67774,2.6289.14649.17871-3.21484,1.98438.11035-.17871,3.21484,4.47363.249-.09375,1.67774-4.47363-.249-.48828,8.77832a2.35863,2.35863,0,0,0,2.39453,2.82519,3.28818,3.28818,0,0,0,2.22266-.63379Z"/><path class="cls-17" d="M331.15782,474.14446a7.48961,7.48961,0,1,1,7.0752,7.90821A7.24377,7.24377,0,0,1,331.15782,474.14446Zm12.94336.71973a5.48,5.48,0,1,0-5.76953,5.42774A5.371,5.371,0,0,0,344.10118,474.86419Z"/><path class="cls-17" d="M364.88341,474.84173l-.47461,8.52734-1.98535-.11035.46386-8.33105c.17286-3.10352-1.36132-4.78711-4.15625-4.94238-3.15918-.17579-5.25293,1.67089-5.43945,5.02539l-.42969,7.71582-1.98437-.11036.81836-14.70507,1.90039.10547-.15137,2.71191a6.18894,6.18894,0,0,1,5.749-2.5127C362.77208,468.415,365.11778,470.62005,364.88341,474.84173Z"/><path class="cls-17" d="M384.15684,477.70892l-12.30078-.68457a5.45181,5.45181,0,0,0,5.50293,5.43847,5.80689,5.80689,0,0,0,4.6084-1.67871l1.0459,1.34766a7.24893,7.24893,0,0,1-5.80957,2.08887c-4.584-.25489-7.54-3.56055-7.29785-7.9209a7.09349,7.09349,0,0,1,7.59961-7.06543c4.13769.23047,6.96,3.44433,6.71386,7.86133C384.21056,477.26361,384.16954,477.48529,384.15684,477.70892Zm-12.21875-2.166,10.42774.58008a5.23248,5.23248,0,0,0-10.42774-.58008Z"/><path class="cls-17" d="M265.361,502.26165l-10.90332-.60644-2.63965,5.09668-2.15235-.12012,10.03418-19.07227,2.041.11426,7.85742,20.06738-2.17969-.12207Zm-.66309-1.71972-4.11035-10.77344-5.28223,10.251Z"/><path class="cls-17" d="M285.9879,493.90228l-7.3584,14.34082-2.041-.11328-5.69629-15.06739,2.06836.11524,4.81152,12.83008,6.25879-12.21485Z"/><path class="cls-17" d="M301.84434,502.77532l-12.30078-.68359a5.44954,5.44954,0,0,0,5.502,5.4375,5.80238,5.80238,0,0,0,4.6084-1.67871l1.04687,1.34863a7.25338,7.25338,0,0,1-5.80957,2.08887c-4.585-.25488-7.542-3.56055-7.29883-7.92188a7.09243,7.09243,0,0,1,7.60059-7.06445c4.13672.23047,6.959,3.44336,6.71386,7.86133C301.89708,502.331,301.85606,502.55267,301.84434,502.77532Zm-12.21875-2.165,10.42774.58007a5.23255,5.23255,0,0,0-10.42774-.58007Z"/><path class="cls-17" d="M320.6754,502.02825l-.47461,8.52735-1.98535-.11035.46289-8.33106c.17285-3.10351-1.35938-4.78711-4.15527-4.94238-3.15918-.17578-5.25391,1.6709-5.44043,5.02539l-.42871,7.71582-1.98438-.11035.81836-14.70508,1.90039.10547-.15137,2.71289a6.19428,6.19428,0,0,1,5.75-2.51367C318.56505,495.6015,320.90977,497.80657,320.6754,502.02825Z"/><path class="cls-17" d="M340.78282,496.95013l-.81738,14.70508-1.90137-.10645.14942-2.68359a5.85835,5.85835,0,0,1-5.44141,2.53027c-3.74609-.208-6.08984-2.44238-5.85449-6.66406l.47461-8.52637,1.98437.11035-.46289,8.33106c-.17383,3.13086,1.3584,4.81445,4.1543,4.9707,3.07519.1709,5.11426-1.707,5.30078-5.06152l.42969-7.71582Z"/><path class="cls-17" d="M359.82579,506.00091l-12.30078-.68457a5.45035,5.45035,0,0,0,5.50195,5.43848,5.8057,5.8057,0,0,0,4.6084-1.67871l1.04688,1.34863a7.25218,7.25218,0,0,1-5.80957,2.08887c-4.585-.25489-7.542-3.56055-7.29883-7.92188a7.09294,7.09294,0,0,1,7.60058-7.06445c4.1377.22949,6.959,3.44336,6.71387,7.86035C359.87852,505.5556,359.83751,505.77728,359.82579,506.00091Zm-12.21875-2.165,10.42773.5791a5.23248,5.23248,0,0,0-10.42773-.5791Z"/><path d="M239.95665,471.20208c-.18457,3.32715-2.751,5.09082-7.64356,4.81934l-9.00195-.501L224.4,455.95111l8.44238.46875c4.36133.24316,6.77539,2.22851,6.59766,5.415a4.54986,4.54986,0,0,1-3.23926,4.2793A4.68027,4.68027,0,0,1,239.95665,471.20208Zm-2.05957-.28222c.1416-2.54493-1.66992-3.76661-5.1084-3.958l-6.90527-.38477-.40918,7.35254,6.90527.38477C235.818,474.50579,237.75352,473.49114,237.89708,470.91986Zm-11.52344-13.14942-.39551,7.10156,6.23438.34668c3.13086.17481,5.01562-.92675,5.14648-3.27539.12989-2.34863-1.62011-3.65136-4.751-3.82617Z"/><path d="M246.24376,455.98821l1.98437.11036-1.15429,20.74414-1.98438-.11035Z"/><path d="M265.33263,468.71575l-.50684,9.11426-1.90039-.10644.12793-2.292c-.97852,1.459-2.76465,2.28614-5.19629,2.15039-3.32715-.18457-5.27051-2.03125-5.12891-4.57617.126-2.26367,1.68457-4.084,5.90625-3.84961l4.66895.25977.0498-.89453c.14063-2.51563-1.209-3.96582-3.94921-4.11817a7.5,7.5,0,0,0-4.98829,1.46192l-.81347-1.53223a9.359,9.359,0,0,1,6.09375-1.65137C263.49864,462.89349,265.54454,464.914,265.33263,468.71575Zm-2.24512,4.58692.13379-2.40528-4.61231-.25683c-2.85254-.1582-3.83691.90918-3.9209,2.418-.09472,1.70605,1.21583,2.84375,3.56446,2.97461A4.71076,4.71076,0,0,0,263.08751,473.30267Z"/><path d="M270.32384,470.76068a7.24886,7.24886,0,0,1,7.99121-7.043,6.43078,6.43078,0,0,1,5.59765,3.22754l-1.53808.92382a5.00348,5.00348,0,0,0-4.15528-2.41894,5.74283,5.74283,0,0,0-.63769,11.46289,4.98013,4.98013,0,0,0,4.39648-1.915l1.42579,1.08887a6.49288,6.49288,0,0,1-5.9209,2.58691A7.27121,7.27121,0,0,1,270.32384,470.76068Z"/><path d="M293.89317,472.0429l-3.6455,2.99414-.2334,4.19336-1.98438-.11035,1.1543-20.74414,1.98437.11035-.78222,14.0625,9.22461-7.53515,2.46093.13671-6.625,5.66114,6.39356,9.07715-2.43262-.13477Z"/><path d="M303.55528,478.30071l.98242-1.51562a8.8921,8.8921,0,0,0,5.13575,1.94043c2.79589.15527,3.99414-.73047,4.07519-2.18457.21289-3.83008-9.48828-1.34082-9.165-7.15625.13379-2.4043,2.30274-4.07813,6.04883-3.87012a9.98662,9.98662,0,0,1,5.124,1.65918l-.956,1.54492a7.54951,7.54951,0,0,0-4.2627-1.499c-2.65625-.14746-3.88769.82227-3.96484,2.21973-.22168,3.96972,9.47852,1.50879,9.16406,7.15625-.1416,2.543-2.46972,4.06836-6.2998,3.85547A9.83348,9.83348,0,0,1,303.55528,478.30071Z"/><path d="M328.08653,480.45111a4.73225,4.73225,0,0,1-3.16113.86132c-2.76758-.15332-4.2168-1.80468-4.06641-4.5166l.49414-8.88965-2.6289-.14648.09375-1.67774,2.6289.14649.17871-3.21484,1.98438.11035-.17871,3.21484,4.47363.249-.09375,1.67774-4.47363-.249-.48828,8.77832a2.35863,2.35863,0,0,0,2.39453,2.82519,3.28818,3.28818,0,0,0,2.22266-.63379Z"/><path d="M331.15782,474.14446a7.48961,7.48961,0,1,1,7.0752,7.90821A7.24377,7.24377,0,0,1,331.15782,474.14446Zm12.94336.71973a5.48,5.48,0,1,0-5.76953,5.42774A5.371,5.371,0,0,0,344.10118,474.86419Z"/><path d="M364.88341,474.84173l-.47461,8.52734-1.98535-.11035.46386-8.33105c.17286-3.10352-1.36132-4.78711-4.15625-4.94238-3.15918-.17579-5.25293,1.67089-5.43945,5.02539l-.42969,7.71582-1.98437-.11036.81836-14.70507,1.90039.10547-.15137,2.71191a6.18894,6.18894,0,0,1,5.749-2.5127C362.77208,468.415,365.11778,470.62005,364.88341,474.84173Z"/><path d="M384.15684,477.70892l-12.30078-.68457a5.45181,5.45181,0,0,0,5.50293,5.43847,5.80689,5.80689,0,0,0,4.6084-1.67871l1.0459,1.34766a7.24893,7.24893,0,0,1-5.80957,2.08887c-4.584-.25489-7.54-3.56055-7.29785-7.9209a7.09349,7.09349,0,0,1,7.59961-7.06543c4.13769.23047,6.96,3.44433,6.71386,7.86133C384.21056,477.26361,384.16954,477.48529,384.15684,477.70892Zm-12.21875-2.166,10.42774.58008a5.23248,5.23248,0,0,0-10.42774-.58008Z"/><path d="M265.361,502.26165l-10.90332-.60644-2.63965,5.09668-2.15235-.12012,10.03418-19.07227,2.041.11426,7.85742,20.06738-2.17969-.12207Zm-.66309-1.71972-4.11035-10.77344-5.28223,10.251Z"/><path d="M285.9879,493.90228l-7.3584,14.34082-2.041-.11328-5.69629-15.06739,2.06836.11524,4.81152,12.83008,6.25879-12.21485Z"/><path d="M301.84434,502.77532l-12.30078-.68359a5.44954,5.44954,0,0,0,5.502,5.4375,5.80238,5.80238,0,0,0,4.6084-1.67871l1.04687,1.34863a7.25338,7.25338,0,0,1-5.80957,2.08887c-4.585-.25488-7.542-3.56055-7.29883-7.92188a7.09243,7.09243,0,0,1,7.60059-7.06445c4.13672.23047,6.959,3.44336,6.71386,7.86133C301.89708,502.331,301.85606,502.55267,301.84434,502.77532Zm-12.21875-2.165,10.42774.58007a5.23255,5.23255,0,0,0-10.42774-.58007Z"/><path d="M320.6754,502.02825l-.47461,8.52735-1.98535-.11035.46289-8.33106c.17285-3.10351-1.35938-4.78711-4.15527-4.94238-3.15918-.17578-5.25391,1.6709-5.44043,5.02539l-.42871,7.71582-1.98438-.11035.81836-14.70508,1.90039.10547-.15137,2.71289a6.19428,6.19428,0,0,1,5.75-2.51367C318.56505,495.6015,320.90977,497.80657,320.6754,502.02825Z"/><path d="M340.78282,496.95013l-.81738,14.70508-1.90137-.10645.14942-2.68359a5.85835,5.85835,0,0,1-5.44141,2.53027c-3.74609-.208-6.08984-2.44238-5.85449-6.66406l.47461-8.52637,1.98437.11035-.46289,8.33106c-.17383,3.13086,1.3584,4.81445,4.1543,4.9707,3.07519.1709,5.11426-1.707,5.30078-5.06152l.42969-7.71582Z"/><path d="M359.82579,506.00091l-12.30078-.68457a5.45035,5.45035,0,0,0,5.50195,5.43848,5.8057,5.8057,0,0,0,4.6084-1.67871l1.04688,1.34863a7.25218,7.25218,0,0,1-5.80957,2.08887c-4.585-.25489-7.542-3.56055-7.29883-7.92188a7.09294,7.09294,0,0,1,7.60058-7.06445c4.1377.22949,6.959,3.44336,6.71387,7.86035C359.87852,505.5556,359.83751,505.77728,359.82579,506.00091Zm-12.21875-2.165,10.42773.5791a5.23248,5.23248,0,0,0-10.42773-.5791Z"/><path class="cls-18" d="M223.9547,711.62689c0,4.3125-3.19141,6.97265-8.34375,6.97265h-4.42383v5.65625h-3.64063V704.65521H215.611C220.76329,704.65521,223.9547,707.287,223.9547,711.62689Zm-3.668,0c0-2.46289-1.65235-3.8916-4.84375-3.8916h-4.25586v7.78417H215.443C218.63438,715.51946,220.28673,714.09173,220.28673,711.62689Z"/><path class="cls-18" d="M240.75548,715.49114v8.76465h-3.30469v-1.82031c-.83984,1.28711-2.46387,2.01563-4.70312,2.01563-3.416,0-5.57227-1.876-5.57227-4.48047,0-2.49121,1.67969-4.45118,6.21484-4.45118h3.86524v-.2246c0-2.043-1.23242-3.248-3.72461-3.248a7.40485,7.40485,0,0,0-4.53613,1.48437l-1.37207-2.54785a10.51629,10.51629,0,0,1,6.32812-1.84863C238.26329,709.1347,240.75548,711.17962,240.75548,715.49114Zm-3.5,4.08887v-1.73633h-3.61231c-2.37988,0-3.02441.89551-3.02441,1.98828,0,1.25977,1.06445,2.07129,2.85547,2.07129A3.81269,3.81269,0,0,0,237.25548,719.58Z"/><path class="cls-18" d="M269.4,709.30267l-5.5166,14.95312h-3.36035l-3.86329-10.30468-3.91992,10.30468H249.3795l-5.48828-14.95312h3.30371l3.94824,11.0332,4.11621-11.0332h2.93946l4.0332,11.08887,4.05859-11.08887Z"/><path class="cls-18" d="M282.33556,723.44329a5.50458,5.50458,0,0,1-3.36133,1.00782c-3.27539,0-5.15137-1.73633-5.15137-5.03907v-7.19726H271.359v-2.79883h2.46387v-3.416h3.5v3.416h4.00391v2.79883h-4.00391v7.1123c0,1.45606.72754,2.24024,2.07129,2.24024a3.14994,3.14994,0,0,0,1.96094-.61621Z"/><path class="cls-18" d="M300.81505,709.30267v14.95312h-3.332V722.3515a6.11017,6.11017,0,0,1-4.81543,2.09961c-3.83594,0-6.44043-2.09961-6.44043-6.60743v-8.541h3.5v8.06445c0,2.7168,1.28808,4.00391,3.5,4.00391,2.43652,0,4.08789-1.51172,4.08789-4.50782v-7.56054Z"/><path class="cls-18" d="M305.29454,716.77923c0-4.48047,3.36035-7.64453,8.0918-7.64453,2.91211,0,5.23633,1.20508,6.38476,3.47266l-2.6875,1.56835a4.23311,4.23311,0,0,0-3.72461-2.07226,4.67793,4.67793,0,0,0,0,9.35156,4.231,4.231,0,0,0,3.72461-2.07226l2.6875,1.56836a6.79876,6.79876,0,0,1-6.38476,3.5C308.65489,724.45111,305.29454,721.2597,305.29454,716.77923Z"/><path class="cls-18" d="M329.87852,717.84368l-2.60351,2.46387v3.94824h-3.5V703.47943h3.5v12.54394l7.25195-6.7207h4.2002l-6.24414,6.27246,6.832,8.68066h-4.25586Z"/><path class="cls-18" d="M356.08653,717.89935H344.35509c.41992,2.18457,2.24023,3.584,4.84375,3.584a5.35766,5.35766,0,0,0,4.05957-1.624l1.876,2.15625a7.5779,7.5779,0,0,1-6.01953,2.43555c-5.01172,0-8.25976-3.21973-8.25976-7.67188a7.43637,7.43637,0,0,1,7.72754-7.64453c4.36816,0,7.55957,3.05273,7.55957,7.72851C356.1422,717.14349,356.11485,717.56341,356.08653,717.89935Zm-11.75976-2.32422h8.4834a4.06967,4.06967,0,0,0-4.22754-3.63965A4.13181,4.13181,0,0,0,344.32677,715.57513Z"/><path class="cls-18" d="M369.611,723.44329a5.49961,5.49961,0,0,1-3.36036,1.00782c-3.27636,0-5.15136-1.73633-5.15136-5.03907v-7.19726h-2.46485v-2.79883h2.46485v-3.416h3.5v3.416h4.0039v2.79883h-4.0039v7.1123c0,1.45606.72754,2.24024,2.07129,2.24024a3.1471,3.1471,0,0,0,1.96-.61621Z"/><path class="cls-18" d="M220.25841,747.31829H210.4586L208.527,751.8554H204.775l8.82031-19.60058h3.584L226.027,751.8554h-3.80859Zm-1.2041-2.85547-3.69532-8.56836-3.668,8.56836Z"/><path class="cls-18" d="M237.9547,736.73431v3.332a4.57281,4.57281,0,0,0-.8125-.084c-2.66016,0-4.33985,1.56835-4.33985,4.62109v7.252h-3.5V736.90228h3.332v2.18457C233.6422,737.51946,235.46251,736.73431,237.9547,736.73431Z"/><path class="cls-18" d="M267.04649,743.287v8.56836h-3.5v-8.12109c0-2.65918-1.23242-3.94727-3.35937-3.94727-2.29688,0-3.89258,1.51172-3.89258,4.48047v7.58789h-3.5v-8.12109c0-2.65918-1.23242-3.94727-3.35937-3.94727-2.32422,0-3.89258,1.51172-3.89258,4.48047v7.58789h-3.5V736.90228h3.332v1.90429a6.19368,6.19368,0,0,1,4.90039-2.07226,5.59989,5.59989,0,0,1,5.03906,2.49219,6.98468,6.98468,0,0,1,5.60059-2.49219C264.527,736.73431,267.04649,738.77923,267.04649,743.287Z"/><path class="cls-18" d="M271.55431,744.37884c0-4.48047,3.35937-7.64453,7.95117-7.64453,4.64844,0,7.98047,3.16406,7.98047,7.64453s-3.332,7.67187-7.98047,7.67187C274.91368,752.05071,271.55431,748.85931,271.55431,744.37884Zm12.40332,0a4.444,4.444,0,1,0-4.45215,4.67578A4.35433,4.35433,0,0,0,283.95763,744.37884Z"/><path class="cls-18" d="M300.61681,736.73431v3.332a4.53592,4.53592,0,0,0-.81153-.084c-2.65918,0-4.33984,1.56835-4.33984,4.62109v7.252h-3.5V736.90228h3.332v2.18457C296.30528,737.51946,298.12559,736.73431,300.61681,736.73431Z"/><path class="cls-18" d="M319.26524,736.90228l-7,16.15625c-1.37207,3.38867-3.27539,4.42383-5.76757,4.42383a6.18885,6.18885,0,0,1-4.00391-1.3711l1.39941-2.57617a3.79071,3.79071,0,0,0,2.57617,1.03516c1.23145,0,1.96-.58789,2.63184-2.07129l.252-.58789-6.52343-15.00879h3.63964l4.70411,11.06054,4.73242-11.06054Z"/><path class="cls-19" d="M464.01329,31.04827c0,6.25879-4.53711,10.03955-12.01367,10.03955h-7.89844v9.2837h-3.10742V20.96624h11.00586C459.47618,20.96624,464.01329,24.747,464.01329,31.04827Zm-3.10937,0c0-4.70507-3.10743-7.39355-8.98829-7.39355h-7.81445V38.35736h7.81445C457.79649,38.35736,460.90392,35.66888,460.90392,31.04827Z"/><path class="cls-19" d="M492.73985,42.51605H476.357l-3.5293,7.85547h-3.23437l13.44336-29.40528h3.0664l13.44239,29.40528h-3.27735Zm-1.13379-2.52051-7.05761-15.79443-7.05664,15.79443Z"/><path class="cls-19" d="M548.31017,20.96624,538.3961,50.37152h-3.27636L526.50841,25.2929l-8.6543,25.07862h-3.23437l-9.91309-29.40528H507.899l8.48535,25.28858,8.7793-25.28858h2.89844l8.65332,25.41455,8.6123-25.41455Z"/><path class="cls-19" d="M565.1461,23.65472h-10.334V20.96624h23.77637v2.68848h-10.334v26.7168h-3.1084Z"/><path class="cls-19" d="M587.74083,37.81146V20.96624h3.1084V37.68548c0,6.97314,3.27636,10.16553,8.98926,10.16553,5.75488,0,9.03222-3.19239,9.03222-10.16553V20.96624h3.02442V37.81146c0,8.44336-4.53711,12.812-12.05664,12.812S587.74083,46.25482,587.74083,37.81146Z"/><path class="cls-19" d="M623.692,35.66888c0-8.61133,6.55274-14.95459,15.417-14.95459A14.23885,14.23885,0,0,1,649.8629,24.999l-1.97461,1.97461a11.65357,11.65357,0,0,0-8.69531-3.48682c-7.09961,0-12.43457,5.209-12.43457,12.18213S632.09337,47.851,639.193,47.851a11.53472,11.53472,0,0,0,8.69531-3.52881l1.97461,1.97461a14.29967,14.29967,0,0,1-10.7959,4.32666C630.24474,50.62347,623.692,44.28021,623.692,35.66888Z"/><path class="cls-19" d="M670.649,36.5512,664.6422,42.642v7.7295h-3.1084V20.96624h3.1084V38.73529l17.26464-17.769h3.57129L672.74962,34.28265,686.36,50.37152h-3.69629Z"/><path class="cls-19" d="M717.23009,47.683v2.68848H696.43614V20.96624h20.16309v2.68848H699.54454v10.46h15.207v2.64648h-15.207V47.683Z"/><path class="cls-19" d="M735.28673,23.65472h-10.334V20.96624h23.77637v2.68848h-10.334v26.7168h-3.1084Z"/><path d="M464.01329,31.04827c0,6.25879-4.53711,10.03955-12.01367,10.03955h-7.89844v9.2837h-3.10742V20.96624h11.00586C459.47618,20.96624,464.01329,24.747,464.01329,31.04827Zm-3.10937,0c0-4.70507-3.10743-7.39355-8.98829-7.39355h-7.81445V38.35736h7.81445C457.79649,38.35736,460.90392,35.66888,460.90392,31.04827Z"/><path d="M492.73985,42.51605H476.357l-3.5293,7.85547h-3.23437l13.44336-29.40528h3.0664l13.44239,29.40528h-3.27735Zm-1.13379-2.52051-7.05761-15.79443-7.05664,15.79443Z"/><path d="M548.31017,20.96624,538.3961,50.37152h-3.27636L526.50841,25.2929l-8.6543,25.07862h-3.23437l-9.91309-29.40528H507.899l8.48535,25.28858,8.7793-25.28858h2.89844l8.65332,25.41455,8.6123-25.41455Z"/><path d="M565.1461,23.65472h-10.334V20.96624h23.77637v2.68848h-10.334v26.7168h-3.1084Z"/><path d="M587.74083,37.81146V20.96624h3.1084V37.68548c0,6.97314,3.27636,10.16553,8.98926,10.16553,5.75488,0,9.03222-3.19239,9.03222-10.16553V20.96624h3.02442V37.81146c0,8.44336-4.53711,12.812-12.05664,12.812S587.74083,46.25482,587.74083,37.81146Z"/><path d="M623.692,35.66888c0-8.61133,6.55274-14.95459,15.417-14.95459A14.23885,14.23885,0,0,1,649.8629,24.999l-1.97461,1.97461a11.65357,11.65357,0,0,0-8.69531-3.48682c-7.09961,0-12.43457,5.209-12.43457,12.18213S632.09337,47.851,639.193,47.851a11.53472,11.53472,0,0,0,8.69531-3.52881l1.97461,1.97461a14.29967,14.29967,0,0,1-10.7959,4.32666C630.24474,50.62347,623.692,44.28021,623.692,35.66888Z"/><path d="M670.649,36.5512,664.6422,42.642v7.7295h-3.1084V20.96624h3.1084V38.73529l17.26464-17.769h3.57129L672.74962,34.28265,686.36,50.37152h-3.69629Z"/><path d="M717.23009,47.683v2.68848H696.43614V20.96624h20.16309v2.68848H699.54454v10.46h15.207v2.64648h-15.207V47.683Z"/><path d="M735.28673,23.65472h-10.334V20.96624h23.77637v2.68848h-10.334v26.7168h-3.1084Z"/></g><g id="Icon"><polygon class="cls-20" points="335.305 43.672 60.305 43.672 60.305 318.672 216.435 318.672 388.334 403.672 291.692 318.672 335.305 318.672 335.305 43.672"/><polygon class="cls-2" points="326.305 32.672 51.305 32.672 51.305 307.672 207.435 307.672 388.334 403.672 282.692 307.672 326.305 307.672 326.305 32.672"/><rect class="cls-21" x="67.03725" y="48.13395" width="243.53779" height="243.53786"/><path class="cls-2" d="M273.28791,115.94809c3.878,3.13244,6.94284.6047,4.00874-4.53247-2.82-4.93736-13.39773-9.99454-22.26829-2.06752-14.61217,13.0579-21.15408,25.17013-45.46372,25.17013-24.01749,0-47.91215-31.65087-5.45942-47.35424,2.25515-.83419,2.34373-5.22025.66794-7.17143-45.88661-53.42733-90.36321,58.975-124.41429,66.18433,37.65321,4.40058,69.1506-79.5646,105.58039-66.1005,1.64861.60931,1.80016,3.31151.2668,4.23938-33.15964,20.06572-13.02882,59.82244,23.08208,59.66789,28.007-.11986,35.47269-12.29138,49.16733-26.71323A10.90153,10.90153,0,0,1,273.28791,115.94809Z"/><use width="192.13226" height="136.02954" transform="translate(88.46904 129.14643) scale(1.04881)" xlink:href="#Mill_White"/><path class="cls-22" d="M128.50841,259.52337l-8.00293-11.55957H111.673v11.55957h-9.60352V218.02728h17.96192c11.08545,0,18.021,5.75,18.021,15.05713a13.49116,13.49116,0,0,1-8.53613,13.10107l9.30713,13.33789ZM119.49767,225.852H111.673v14.46436h7.82471c5.86865,0,8.833-2.72656,8.833-7.23193C128.33067,228.52,125.36632,225.852,119.49767,225.852Z"/><path class="cls-22" d="M148.00938,218.02728h9.60352v41.49609h-9.60352Z"/><path class="cls-22" d="M206.39806,259.52337l-.0586-24.898-12.21191,20.51123h-4.32813l-12.15234-19.97754v24.36426h-9.01074V218.02728h7.94433l15.53125,25.78662,15.29395-25.78662h7.88476l.11817,41.49609Z"/><path class="cls-22" d="M265.3795,259.52337l-.05859-24.898L253.109,255.13665h-4.32812l-12.15235-19.97754v24.36426h-9.01074V218.02728h7.94434l15.53125,25.78662,15.29394-25.78662h7.88477l.11816,41.49609Z"/><path class="cls-23" d="M586.68712,337.01409h6.47851v27.99512h-6.47851Z"/><path class="cls-23" d="M600.16661,351.2514H611.485v4.99951H600.16661Z"/><path class="cls-23" d="M639.04259,350.41155c0,9.67872-5.79883,15.07764-14.27832,15.07764a14.9647,14.9647,0,0,1-7.75879-1.91992l2.40039-4.75879a9.05221,9.05221,0,0,0,5.23828,1.39941c4.63965,0,7.67969-2.75927,7.87891-8.15869a9.56518,9.56518,0,0,1-6.959,2.51953c-5.39844,0-9.63867-3.439-9.63867-8.71826,0-5.71924,4.67969-9.31836,10.59863-9.31836C634.28282,336.53411,639.04259,341.373,639.04259,350.41155Zm-7.23926-4.8789c0-2.3999-1.79981-4.15967-4.87988-4.15967-2.75879,0-4.67871,1.6001-4.67871,4.15967s1.87988,4.19922,4.75878,4.19922C629.84337,349.73187,631.80333,347.9721,631.80333,345.53265Z"/><path class="cls-23" d="M664.92247,356.21087c0,4.959-3.63965,9.27832-11.6377,9.27832a19.34756,19.34756,0,0,1-10.67871-2.99951l2.55957-4.959a13.47287,13.47287,0,0,0,7.959,2.51953c3.23926,0,5.23828-1.35987,5.23828-3.63965,0-2.19971-1.43945-3.63916-6.51856-3.63916h-7.15917l1.44042-15.75733h17.07715v5.19873H651.525l-.44043,5.31934h2.28027C661.6422,347.53216,664.92247,351.2514,664.92247,356.21087Z"/><path class="cls-23" d="M676.72423,361.4096a9.29879,9.29879,0,0,1-1.08008,3.99951l-2.2793,5.75928h-3.959l1.75976-6.35937a3.469,3.469,0,0,1-2.16015-3.39942,3.85943,3.85943,0,0,1,7.71875,0Z"/><path class="cls-23" d="M608.3629,401.81v5.19922H586.68712V379.01409h21.15625v5.19873H593.12559v6.07911h12.99805V395.331H593.12559v6.479Z"/><path class="cls-23" d="M628.08458,407.00921l-4.71973-6.59912-4.8789,6.59912h-6.79883l8.2793-10.83838-7.999-10.67822h6.999l4.55859,6.2793,4.67969-6.2793h6.63867l-7.99805,10.51855,8.31836,10.998Z"/><path class="cls-23" d="M639.04649,379.01409a3.56576,3.56576,0,0,1,3.87891-3.47949c2.32031,0,3.87988,1.43945,3.87988,3.35938a3.89627,3.89627,0,0,1-7.75879.12011Zm.75977,6.47852h6.23926v21.5166h-6.23926Z"/><path class="cls-23" d="M667.32384,405.96917a8.916,8.916,0,0,1-5.0791,1.35987c-5.07911,0-8.03907-2.59961-8.03907-7.71875v-8.83838h-3.31933v-4.79932h3.31933v-5.23877h6.23926v5.23877h5.35938v4.79932h-5.35938v8.75879a2.50955,2.50955,0,0,0,2.67969,2.83935,4.20334,4.20334,0,0,0,2.51953-.7998Z"/><path class="cls-23" d="M704.96251,401.72991v5.2793H683.80626V402.81l10.79785-10.19824c2.47949-2.35986,2.91895-3.79932,2.91895-5.15918,0-2.19971-1.51954-3.47949-4.47852-3.47949a6.84418,6.84418,0,0,0-5.79883,2.79931l-4.71972-3.03906c2.15918-3.15967,6.0791-5.19922,11.11816-5.19922,6.23828,0,10.39844,3.19922,10.39844,8.27832,0,2.71973-.75977,5.19922-4.67969,8.83887l-6.43848,6.07861Z"/><path class="cls-23" d="M731.60216,392.41155c0,9.67872-5.79883,15.07764-14.27832,15.07764a14.961,14.961,0,0,1-7.75782-1.91992l2.39942-4.75879a9.05532,9.05532,0,0,0,5.23926,1.39941c4.63867,0,7.67871-2.75927,7.8789-8.15869a9.56673,9.56673,0,0,1-6.959,2.51953c-5.39942,0-9.63867-3.439-9.63867-8.71826,0-5.71924,4.67968-9.31836,10.59765-9.31836C726.84337,378.53411,731.60216,383.373,731.60216,392.41155Zm-7.23926-4.8789c0-2.3999-1.79883-4.15967-4.87891-4.15967-2.75976,0-4.67968,1.6001-4.67968,4.15967s1.88086,4.19922,4.75976,4.19922C722.40392,391.73187,724.3629,389.9721,724.3629,387.53265Z"/><path d="M586.68712,337.01409h6.47851v27.99512h-6.47851Z"/><path d="M600.16661,351.2514H611.485v4.99951H600.16661Z"/><path d="M639.04259,350.41155c0,9.67872-5.79883,15.07764-14.27832,15.07764a14.9647,14.9647,0,0,1-7.75879-1.91992l2.40039-4.75879a9.05221,9.05221,0,0,0,5.23828,1.39941c4.63965,0,7.67969-2.75927,7.87891-8.15869a9.56518,9.56518,0,0,1-6.959,2.51953c-5.39844,0-9.63867-3.439-9.63867-8.71826,0-5.71924,4.67969-9.31836,10.59863-9.31836C634.28282,336.53411,639.04259,341.373,639.04259,350.41155Zm-7.23926-4.8789c0-2.3999-1.79981-4.15967-4.87988-4.15967-2.75879,0-4.67871,1.6001-4.67871,4.15967s1.87988,4.19922,4.75878,4.19922C629.84337,349.73187,631.80333,347.9721,631.80333,345.53265Z"/><path d="M664.92247,356.21087c0,4.959-3.63965,9.27832-11.6377,9.27832a19.34756,19.34756,0,0,1-10.67871-2.99951l2.55957-4.959a13.47287,13.47287,0,0,0,7.959,2.51953c3.23926,0,5.23828-1.35987,5.23828-3.63965,0-2.19971-1.43945-3.63916-6.51856-3.63916h-7.15917l1.44042-15.75733h17.07715v5.19873H651.525l-.44043,5.31934h2.28027C661.6422,347.53216,664.92247,351.2514,664.92247,356.21087Z"/><path d="M676.72423,361.4096a9.29879,9.29879,0,0,1-1.08008,3.99951l-2.2793,5.75928h-3.959l1.75976-6.35937a3.469,3.469,0,0,1-2.16015-3.39942,3.85943,3.85943,0,0,1,7.71875,0Z"/><path d="M608.3629,401.81v5.19922H586.68712V379.01409h21.15625v5.19873H593.12559v6.07911h12.99805V395.331H593.12559v6.479Z"/><path d="M628.08458,407.00921l-4.71973-6.59912-4.8789,6.59912h-6.79883l8.2793-10.83838-7.999-10.67822h6.999l4.55859,6.2793,4.67969-6.2793h6.63867l-7.99805,10.51855,8.31836,10.998Z"/><path d="M639.04649,379.01409a3.56576,3.56576,0,0,1,3.87891-3.47949c2.32031,0,3.87988,1.43945,3.87988,3.35938a3.89627,3.89627,0,0,1-7.75879.12011Zm.75977,6.47852h6.23926v21.5166h-6.23926Z"/><path d="M667.32384,405.96917a8.916,8.916,0,0,1-5.0791,1.35987c-5.07911,0-8.03907-2.59961-8.03907-7.71875v-8.83838h-3.31933v-4.79932h3.31933v-5.23877h6.23926v5.23877h5.35938v4.79932h-5.35938v8.75879a2.50955,2.50955,0,0,0,2.67969,2.83935,4.20334,4.20334,0,0,0,2.51953-.7998Z"/><path d="M704.96251,401.72991v5.2793H683.80626V402.81l10.79785-10.19824c2.47949-2.35986,2.91895-3.79932,2.91895-5.15918,0-2.19971-1.51954-3.47949-4.47852-3.47949a6.84418,6.84418,0,0,0-5.79883,2.79931l-4.71972-3.03906c2.15918-3.15967,6.0791-5.19922,11.11816-5.19922,6.23828,0,10.39844,3.19922,10.39844,8.27832,0,2.71973-.75977,5.19922-4.67969,8.83887l-6.43848,6.07861Z"/><path d="M731.60216,392.41155c0,9.67872-5.79883,15.07764-14.27832,15.07764a14.961,14.961,0,0,1-7.75782-1.91992l2.39942-4.75879a9.05532,9.05532,0,0,0,5.23926,1.39941c4.63867,0,7.67871-2.75927,7.8789-8.15869a9.56673,9.56673,0,0,1-6.959,2.51953c-5.39942,0-9.63867-3.439-9.63867-8.71826,0-5.71924,4.67968-9.31836,10.59765-9.31836C726.84337,378.53411,731.60216,383.373,731.60216,392.41155Zm-7.23926-4.8789c0-2.3999-1.79883-4.15967-4.87891-4.15967-2.75976,0-4.67968,1.6001-4.67968,4.15967s1.88086,4.19922,4.75976,4.19922C722.40392,391.73187,724.3629,389.9721,724.3629,387.53265Z"/><path class="cls-2" d="M167.22325,639.30462c4.04688-.32812,6.38477,2.88184,6.79785,7.98926l.76172,9.40527-19.852-2.32617-.70019-8.65137c-.31641-3.90722.98-6.28808,3.79882-6.51562a5.331,5.331,0,0,1,5.4541,3.18164A3.92229,3.92229,0,0,1,167.22325,639.30462ZM157.00352,651.873l6.35352.75-.46338-5.7207c-.24805-3.07032-1.67139-5.03321-4.1831-4.83008-1.70215.13769-2.36866,1.624-2.17188,4.05176Zm10.47071-9.80762c-1.98145.16016-2.56153,1.668-2.34912,4.291l.52881,6.53027,6.60644.75781-.51562-6.36328C171.46056,643.76556,169.9586,641.86419,167.47423,642.06536Z"/><path class="cls-2" d="M152.14757,631.97552l-.15528-2.68359,20.981,2.9375.15527,2.68359Z"/><path class="cls-2" d="M157.19737,609.70794l14.92822,2.45313.084,2.57422-1.83106-.30372a7.39027,7.39027,0,0,1,2.15821,5.168c.123,3.77735-2.19239,6.627-6.19434,6.75782-5.09326.167-8.84814-3.2959-9.00586-8.10938-.08349-2.54687.77979-4.42383,2.48389-5.43262l-2.53516-.4209Zm6.51123,3.793c-2.63037.08594-4.11767,1.73145-4.0249,4.55762.10889,3.33008,2.792,5.708,6.45752,5.58789,2.60254-.085,4.11816-1.73145,4.02539-4.55762C170.05724,615.7304,167.37462,613.38079,163.7086,613.50091Z"/><path class="cls-2" d="M165.75938,606.082a8.45881,8.45881,0,0,1-8.66455-8.80761c.02344-2.85547,1.1045-4.94727,3.27-6.07715l1.24121,2.27832a4.20607,4.20607,0,0,0-2.16064,4.01465c-.02783,3.35937,2.55615,5.84472,6.22412,5.875,2.60449.02148,4.18555-1.56153,4.209-4.418a5.36858,5.36858,0,0,0-2.06445-4.44141l1.416-1.94824a7.98019,7.98019,0,0,1,2.999,6.52149C172.194,603.39056,169.62364,606.11419,165.75938,606.082Z"/><path class="cls-2" d="M164.15392,579.67864l8.90234-4.76269-.18848,3.10254-7.248,3.85351,2.60351,3.80469,4.11426,1.0918-.16211,2.68359-20.4917-5.39453.1626-2.68359,13.03515,3.42773-6.71093-9.63769.229-3.77344Z"/><path class="cls-2" d="M171.609,573.43353l-1.95019-1.47364a8.65594,8.65594,0,0,0,2.17773-4.9082c.33985-2.55371-.291-3.96484-1.65136-4.14551-2.8584-.38086-1.89063,8.05274-6.85889,7.39161-2.91406-.3877-4.42285-3.27149-3.8877-7.29688a9.65933,9.65933,0,0,1,2.01563-4.957l1.96924,1.335a7.82393,7.82393,0,0,0-1.74219,4.1748c-.32861,2.47071.41748,3.86915,1.69433,4.03907,2.96973.3955,1.96973-8.01465,6.85547-7.36426,3.05274.40625,4.40821,3.38281,3.876,7.37988A10.41259,10.41259,0,0,1,171.609,573.43353Z"/><path class="cls-2" d="M171.69591,552.70892a3.91959,3.91959,0,0,0,.74511.25879,1.70443,1.70443,0,0,0,2.24317-1.49317,3.71864,3.71864,0,0,0-.20215-2.23144l2.11816-.084a6.02767,6.02767,0,0,1,.12305,3.56446,3.58307,3.58307,0,0,1-4.51269,2.97949,5.48485,5.48485,0,0,1-1.06641-.36231l-7.3877-3.34961-.56884,2.45606-2.06055-.9082.57471-2.4834-3.01953-1.36035.60644-2.61914,3.01953,1.36035.96045-4.14649,2.0542.93555-.96,4.14648Z"/><path class="cls-2" d="M172.07677,544.34857A8.452,8.452,0,0,1,165.857,533.6972c1.081-4.08789,4.18359-6.07617,7.94629-5.082a8.43515,8.43515,0,0,1,6.25391,10.63183C178.97716,543.33392,175.81212,545.33587,172.07677,544.34857Zm1.168-13.07129c-2.54493-.67285-4.44141.47656-5.16407,3.21-.85156,3.22168,1.03614,6.26855,4.582,7.20605,2.51758.666,4.44141-.47656,5.16407-3.21C178.68517,535.23529,176.79063,532.21478,173.24474,531.27728Z"/><path class="cls-2" d="M177.7672,509.69232a9.93738,9.93738,0,0,1,1.62011.64746l7.52246,3.916-.75293,2.58106-7.52246-3.916a6.96015,6.96015,0,0,0-1.14355-.47949c-1.85547-.541-3.21777.22852-3.86816,2.46-.8086,2.76953.12109,5.083,3.00585,6.5957l7.08887,3.70118-.75293,2.58105-13.42578-6.97949.72168-2.47363,1.72656.88281a7.2803,7.2803,0,0,1-.457-5.73438C172.47032,510.248,174.72911,508.80657,177.7672,509.69232Z"/><path class="cls-2" d="M183.14806,503.97747l.16015.04981c2.59473.80273,4.48731-.19336,5.43164-3.24317a6.64065,6.64065,0,0,0-.27343-4.89257l2.18554-.52442a8.82473,8.82473,0,0,1,.26856,6.32715c-1.30078,4.19922-4.51172,6.04785-8.25684,4.88867-4.81445-1.49219-7.27539-5.94726-5.8418-10.57519,1.18555-3.8252,4.26465-5.627,8.08985-4.44141a11.08887,11.08887,0,0,1,1.84082.77539Zm-1.78907-.84765,2.833-9.14844c-2.55273-.9375-4.48437.28223-5.26269,2.79687A5.32443,5.32443,0,0,0,181.359,503.12982Z"/><path class="cls-2" d="M194.66759,468.5678l7.18359-1.41113-.92773,2.81934-6.75782,1.37353-.166.50537-1.63477,4.97315,5.32422,2.98828-.88281,2.68652-17.39356-9.84375,2.28223-6.94189c1.43359-4.36182,4.25-6.20606,7.708-5.06934A7.27005,7.27005,0,0,1,194.66759,468.5678Zm-5.90039-5.18164c-2.2334-.73437-3.90235.48536-4.83692,3.33106l-1.47851,4.49512,7.80078,4.42041,1.51269-4.60059C193.01524,467.22894,192.03868,464.46185,188.7672,463.38616Z"/><path class="cls-2" d="M186.19786,453.10394a1.8552,1.8552,0,0,1-1.16211-2.4292,1.63592,1.63592,0,0,1,2.03027-1.11865,1.8595,1.8595,0,0,1,1.20606,2.47363A1.62054,1.62054,0,0,1,186.19786,453.10394Zm4.10254,1.85254.85742-2.54737,13.126,7.51758-.85742,2.54736Z"/><path class="cls-2" d="M197.43419,434.0307l10.97949,13.73876-.88965,2.59571-15.19238-1.44727.87109-2.543L205.36,447.61077,196.55333,436.6Z"/><path class="cls-2" d="M206.20665,433.97894l.15918.05566c2.56348.897,4.48926-.03076,5.54394-3.04394a6.6449,6.6449,0,0,0-.0957-4.89795l2.20215-.4458a8.82132,8.82132,0,0,1,.03906,6.332c-1.45117,4.14941-4.72656,5.88037-8.42676,4.58593-4.75683-1.66455-7.05468-6.20556-5.4541-10.77783,1.32227-3.77929,4.46387-5.46826,8.24317-4.146a11.15548,11.15548,0,0,1,1.81152.84179Zm-1.75781-.91162,3.16308-9.03809c-2.51758-1.0293-4.49121.11914-5.36035,2.60352A5.32512,5.32512,0,0,0,204.44884,433.06732Z"/><path class="cls-2" d="M207.15977,406.07806l2.28321,1.34863a5.69947,5.69947,0,0,0-.26172.6499c-.99609,2.79493-.17774,5.167,2.81445,6.94678l6.48828,3.88818-.90234,2.53125-12.98731-7.75048.86426-2.42578,1.94239,1.13818C206.27013,410.57513,206.2672,408.58294,207.15977,406.07806Z"/></g></svg>