<svg id="Main" xmlns="http://www.w3.org/2000/svg" xmlns:xlink="http://www.w3.org/1999/xlink" viewBox="0 0 72.09942 72.09945"><defs><style>.cls-1{fill:#fff;}.cls-2{fill:#003271;}.cls-3{fill:#fecf0a;}</style><symbol id="Mill_White" data-name="Mill White" viewBox="0 0 192.132 136.03"><polygon class="cls-1" points="192.132 73.407 188.21 16.185 190.227 9.863 189.211 0 167.536 0 166.519 9.863 168.537 16.185 164.667 72.458 156.727 48.672 123.78 73.414 123.78 73.414 115.525 48.672 82.578 73.401 74.323 48.672 41.376 73.424 41.376 73.424 33.121 48.672 0 73.429 0 136.03 192.132 136.03 192.132 73.429 192.132 73.407"/></symbol></defs><title>RIMM_Logo</title><rect class="cls-2" width="72.09942" height="72.09945"/><path class="cls-1" d="M61.06056,20.0764c1.14809.92736,2.05543.179,1.18679-1.34184a4.37006,4.37006,0,0,0-6.59253-.61209c-4.32594,3.86579-6.26268,7.45162-13.45955,7.45162-7.11039,0-14.18441-9.37025-1.61626-14.01924.66763-.247.69386-1.54545.19774-2.1231C27.192-6.38542,14.0247,26.89132,3.94387,29.02564,15.09111,30.32843,24.41592,5.47052,35.201,9.45657a.73445.73445,0,0,1,.079,1.25507C25.463,16.6521,31.42277,28.42209,42.11341,28.37633c8.29149-.03548,10.5017-3.63886,14.556-7.90846A3.2274,3.2274,0,0,1,61.06056,20.0764Z"/><use width="192.13226" height="136.02954" transform="translate(6.04884 23.98377) scale(0.3105)" xlink:href="#Mill_White"/><path class="cls-3" d="M18.19678,62.58126l-2.36817-3.42187H13.21338v3.42187H10.3706V50.29806H15.688c3.28125,0,5.334,1.70215,5.334,4.457A3.99307,3.99307,0,0,1,18.4956,58.633l2.75489,3.94824Zm-2.667-9.9668h-2.3164v4.28125h2.3164c1.73731,0,2.61524-.80664,2.61524-2.14062C18.145,53.40353,17.26709,52.61446,15.52978,52.61446Z"/><path class="cls-3" d="M23.97119,50.29806H26.814v12.2832H23.97119Z"/><path class="cls-3" d="M41.25537,62.58126l-.0166-7.37012-3.61524,6.07129H36.34228L32.7456,55.36935v7.21191h-2.668V50.29806H32.4292l4.59765,7.63281,4.52735-7.63281h2.334l.03516,12.2832Z"/><path class="cls-3" d="M58.71826,62.58126l-.01758-7.37012-3.61523,6.07129H53.8042l-3.59668-5.91308v7.21191h-2.668V50.29806h2.35156l4.59766,7.63281,4.52734-7.63281h2.334l.03515,12.2832Z"/></svg>